<?xml version="1.0" encoding="UTF-8" standalone="no"?>
<!-- Created with Inkscape (http://www.inkscape.org/) -->

<svg
   xmlns:dc="http://purl.org/dc/elements/1.1/"
   xmlns:cc="http://creativecommons.org/ns#"
   xmlns:rdf="http://www.w3.org/1999/02/22-rdf-syntax-ns#"
   xmlns:svg="http://www.w3.org/2000/svg"
   xmlns="http://www.w3.org/2000/svg"
   xmlns:sodipodi="http://sodipodi.sourceforge.net/DTD/sodipodi-0.dtd"
   xmlns:inkscape="http://www.inkscape.org/namespaces/inkscape"
   width="96.080002mm"
   height="96.089996mm"
   viewBox="0 0 96.080002 96.089996"
   version="1.1"
   id="svg159"
   inkscape:version="0.92.5 (2060ec1f9f, 2020-04-08)"
   sodipodi:docname="logo.svg">
  <defs
     id="defs153" />
  <sodipodi:namedview
     id="base"
     pagecolor="#ffffff"
     bordercolor="#666666"
     borderopacity="1.0"
     inkscape:pageopacity="0.0"
     inkscape:pageshadow="2"
     inkscape:zoom="0.35"
     inkscape:cx="-27.150506"
     inkscape:cy="487.61665"
     inkscape:document-units="mm"
     inkscape:current-layer="layer1"
     showgrid="false"
     inkscape:window-width="1318"
     inkscape:window-height="742"
     inkscape:window-x="48"
     inkscape:window-y="98"
     inkscape:window-maximized="1"
     inkscape:snap-page="true"
     inkscape:snap-to-guides="false"
     inkscape:snap-grids="true"
     inkscape:snap-center="true"
     inkscape:snap-object-midpoints="false"
     inkscape:snap-others="false"
     fit-margin-top="0"
     fit-margin-left="0"
     fit-margin-right="0"
     fit-margin-bottom="0" />
  <metadata
     id="metadata156">
    <rdf:RDF>
      <cc:Work
         rdf:about="">
        <dc:format>image/svg+xml</dc:format>
        <dc:type
           rdf:resource="http://purl.org/dc/dcmitype/StillImage" />
        <dc:title></dc:title>
      </cc:Work>
    </rdf:RDF>
  </metadata>
  <g
     inkscape:label="Layer 1"
     inkscape:groupmode="layer"
     id="layer1"
     transform="translate(-0.38,-0.33)">
    <svg
       style="overflow:visible;fill:#333333;filter:url(#colors4601182422)"
       viewBox="0.38 0.33000001 96.080002 96.089996"
       version="1.1"
       id="svg16"
       width="100%"
       height="100%"
       inkscape:export-xdpi="96"
       inkscape:export-ydpi="96">
      <path
         d="M 46.39,3.32 32.51,24.14 15.32,50.08 0.38,72.4 46.39,95.46 48.42,96.42 V 0.33 Z m 0,59.89 V 90.86 L 6.25,70.79 19.17,51.47 l 8.75,3.31 18.47,6.94 z m 0,-30.32 V 57.44 L 29.1,50.93 21.41,48.05 34.22,28.83 Z m 0,-22.31 v 18.04 l -9.93,-3.2 z M 96.46,72.4 81.51,50.08 64.33,24.14 50.45,3.32 48.42,0.33 v 96.08 l 2.03,-0.96 z M 50.45,28.62 V 10.58 l 9.93,14.84 z m 0,5.56 V 32.9 l 12.17,-3.95 12.81,19.22 -7.69,2.88 -17.3,6.51 c 0.01,0 0.01,-23.38 0.01,-23.38 z m 0,56.79 V 61.72 l 18.47,-6.94 8.75,-3.31 12.92,19.32 z"
         id="path14"
         inkscape:connector-curvature="0"
         style="fill:#333333" />
    </svg>
  </g>
</svg>
